<svg width="90" height="31" viewBox="0 0 90 31" fill="none" xmlns="http://www.w3.org/2000/svg">
<path fill-rule="evenodd" clip-rule="evenodd" d="M28.5136 3.90469H27.8719L27.8875 7.09736H28.691C29.5258 7.09736 30.2406 6.52147 30.2406 5.51618C30.2406 4.44522 29.6302 3.90469 28.5136 3.90469ZM25.8579 0H29.3536C30.9763 0 32.0354 0.510221 32.0354 1.68221C32.0354 2.85926 30.7154 3.36443 29.8754 3.50082L29.8806 3.61196C30.705 3.64732 32.265 4.13733 32.265 5.44067C32.265 6.99659 30.7728 7.62805 29.1658 7.62805H25.8631V0H25.8579ZM28.6336 0.525686H27.9084L27.8666 3.37484H28.5345C29.3327 3.37484 30.1415 2.88483 30.1415 1.89469C30.1467 1.1521 29.7449 0.525686 28.6336 0.525686ZM36.9086 4.67804L36.8251 4.71845C36.6321 4.80938 36.4286 4.87 36.2251 4.93062C36.0217 4.99125 35.8182 5.05692 35.6356 5.1428C35.2651 5.32466 34.999 5.6126 34.999 6.1986C34.999 6.76944 35.3173 7.1079 35.8338 7.1079C36.4704 7.1079 36.9086 6.69367 36.9086 5.94096V4.67804ZM33.5068 2.76333C34.2738 2.33393 35.3277 2.16723 36.1573 2.16723C37.5816 2.16723 38.5782 2.66229 38.5782 3.94037V7.62811H36.9242C36.9295 7.51192 36.9399 7.25428 36.919 7.00675L36.9086 6.87035L36.8147 6.97644C36.4025 7.44119 35.9016 7.77461 35.0981 7.77461C33.7572 7.77461 33.2198 7.04716 33.2198 6.36013C33.2198 5.43062 33.9607 5.02143 35.1816 4.77895C36.679 4.4809 36.8825 4.38492 36.8825 3.93027C36.8825 3.35438 36.3555 2.89972 35.5207 2.89972C34.5555 2.89972 33.919 3.21293 33.7259 3.32407L33.5068 2.76333ZM57.0951 2.55579C56.2081 2.55579 55.6916 3.42469 55.6916 5.11195C55.6916 6.35972 56.015 7.37511 57.0794 7.37511C57.982 7.37511 58.4412 6.41024 58.4412 4.68256C58.4412 3.39943 58.0499 2.55579 57.0951 2.55579ZM57.0689 2.16235C59.1299 2.16235 60.3351 3.20805 60.3351 4.8549C60.3351 6.64825 58.9942 7.76972 57.0689 7.76972C55.4672 7.76972 53.8028 7.04228 53.8028 5.09738C53.8028 3.13227 55.3837 2.16235 57.0689 2.16235ZM53.0254 3.30386C52.5976 2.87952 52.0602 2.62693 51.2514 2.62693C50.1401 2.62693 49.5662 3.54129 49.5662 4.99112C49.5662 6.37023 50.2914 7.15325 51.648 7.15325C52.1854 7.15325 52.7593 6.92087 53.041 6.65818L53.2915 6.99159C52.8167 7.39573 51.8671 7.77461 51.0793 7.77461C48.4705 7.77461 47.6096 6.31972 47.6096 4.98102C47.6096 3.36953 48.987 2.16723 51.1314 2.16723C52.0967 2.16723 52.7541 2.36424 53.3854 2.66229L53.0254 3.30386ZM42.1261 3.15231H42.2461C42.7575 2.536 43.4305 2.16723 44.2653 2.16723C45.5906 2.16723 46.3367 2.76838 46.3367 4.1778C46.3367 4.91535 46.3106 6.98654 46.3367 7.63316H44.4218V4.4708C44.4218 3.53624 44.161 3.04622 43.3992 3.04622C42.5279 3.04622 42.267 3.72315 42.267 4.74864V7.63316H40.3522V2.30868H42.1835L42.1261 3.15231Z" fill="white"/>
<path fill-rule="evenodd" clip-rule="evenodd" d="M0 27.3213H23.3287V27.7867H0V27.3213ZM0 28.8174H23.3287V30.2345H0V28.8174ZM0 2.44207H23.3287V2.90746H0V2.44207ZM0 0H23.3287V1.41707H0V0ZM61.558 24.7329V24.2884C60.0874 24.2884 59.5023 23.9433 59.5023 22.3903V12.7008C59.5023 11.1478 60.0874 10.8027 61.558 10.8027V10.3582H52.7451V10.8027C54.2368 10.8027 54.8218 11.1478 54.8218 12.7008V22.3903C54.8218 23.9433 54.2368 24.2884 52.7451 24.2884V24.7329H61.558ZM26.6176 17.5431C26.6176 12.8213 28.0881 11.0016 30.2123 11.0016C32.3364 11.0016 33.807 12.8161 33.807 17.5431C33.807 22.265 32.3364 24.0847 30.2123 24.0847C28.0881 24.0847 26.6176 22.2702 26.6176 17.5431ZM21.8107 17.5435C21.8107 22.4483 25.4054 24.974 30.2124 24.974C35.0194 24.974 38.6141 22.4483 38.6141 17.5435C38.6141 12.6387 35.0194 10.113 30.2124 10.113C25.4054 10.1182 21.8107 12.6387 21.8107 17.5435ZM62.7491 24.8117H63.2235C63.3552 24.4456 63.7664 24.1267 64.2407 24.1267C64.694 24.1267 67.0764 24.9738 69.0266 24.9738C72.4474 24.9738 75.0038 23.6038 75.0038 20.231C75.0038 14.7196 66.386 15.7706 66.386 12.8215C66.386 11.5926 67.4665 11.007 68.8527 11.007C71.3669 11.007 73.3118 12.3613 73.8758 14.6412H74.3502V10.3638H73.8758C73.8336 11.0122 73.6175 11.2109 73.159 11.2109C72.3367 11.2109 71.2509 10.1233 68.6103 10.1233C65.7535 10.1233 62.786 11.5142 62.786 14.5052C62.786 19.7918 71.5777 18.8662 71.5777 22.239C71.5777 23.4887 70.2126 24.0953 68.5892 24.0953C65.9907 24.0953 63.7189 22.5423 63.2182 19.8964H62.7438V24.8117H62.7491ZM82.1089 19.3631H78.667L80.4012 15.1223L82.1089 19.3631ZM78.9938 24.733V24.2885C77.6708 24.2885 77.3019 23.9068 77.3019 23.3786C77.3019 22.9969 77.4073 22.6936 77.5812 22.2492L78.3613 20.168H82.4515L83.4687 22.5681C83.5794 22.8505 83.7059 23.2165 83.7059 23.5355C83.7059 24.0218 83.3159 24.2833 82.8204 24.2833H81.8453V24.7277H89.6409V24.2833C88.924 24.2205 88.7554 24.1212 88.3653 23.2322L82.8889 10.3531H81.3762L76.4164 22.3642C75.7891 23.8806 75.4202 24.1996 74.5347 24.2833V24.7277H78.9938V24.733ZM47.6429 24.7329V24.2884C46.1513 24.2884 45.5662 23.9433 45.5662 22.3903V17.8671C47.9064 17.8671 48.8552 18.2123 48.987 20.6124H49.4613V14.233H48.987C48.8552 16.6331 47.9064 16.9782 45.5662 16.9782V11.2472H48.0804C50.331 11.2472 51.5011 12.1779 51.7172 14.3166H52.1916V10.3582H38.809V10.8027C40.3006 10.8027 40.8857 11.1478 40.8857 12.7008V22.3903C40.8857 23.9433 40.3006 24.2884 38.809 24.2884V24.7329H47.6429ZM4.04271 18.2911C4.75954 21.8783 7.86406 23.9751 11.4008 23.9751C13.5987 23.9751 15.5489 23.1542 15.5489 21.3606C15.5489 20.1631 14.7636 19.3579 13.6356 18.7199C13.0716 18.401 12.418 18.1134 11.717 17.8362C11.0213 17.5591 10.2728 17.2924 9.52964 17.0048C6.54635 15.8492 3.64213 14.3955 3.64213 10.892C3.64213 6.93887 7.56889 5.06164 11.4271 5.06164C13.1981 5.06164 14.4473 5.42768 15.3908 5.79371C15.8652 5.97673 16.2657 6.16497 16.6136 6.30093C16.9668 6.44211 17.283 6.54146 17.5782 6.54146C18.2423 6.54146 18.5638 6.23295 18.6429 5.39107H19.0909V10.9809H18.6271C17.8259 7.88533 15.1589 6.06039 11.7434 6.06039C9.85116 6.06039 8.29626 6.86566 8.29626 8.62263C8.29626 9.68412 9.07635 10.3691 10.1779 10.9129C11.2743 11.4568 12.7396 11.8908 14.1996 12.4294C17.1196 13.5066 19.9659 14.9916 19.9659 18.6519C19.9659 23.1332 16.5873 24.9739 11.9753 24.9739C10.6681 24.9739 9.21339 24.6915 8.0011 24.4039C7.39495 24.2627 6.85206 24.1163 6.42512 24.0117C5.99818 23.9071 5.67139 23.8287 5.49746 23.8287C4.8386 23.8287 4.26408 24.2523 4.04798 24.7595H3.57361V18.2911H4.04271Z" fill="white"/>
</svg>
